<svg xmlns="http://www.w3.org/2000/svg" width="1920" height="869" viewBox="0 0 1920 869" fill="none"><path d="M248.523 364.647H244.246L241.888 368.784H243.804L241.291 373.889L247.895 367.98H245.749L248.523 364.647Z" fill="#FFD400"></path><path d="M243.428 366.081L241.888 368.784H243.804L241.291 373.889L246.292 369.414H244.625L245.818 367.98H245.749L247.33 366.081H243.428Z" fill="#FFB000"></path><path d="M241.291 374.136C241.238 374.136 241.186 374.12 241.142 374.086C241.048 374.015 241.017 373.887 241.069 373.781L243.407 369.031H241.888C241.801 369.031 241.719 368.984 241.675 368.908C241.631 368.832 241.63 368.738 241.674 368.662L244.031 364.525C244.075 364.448 244.157 364.4 244.246 364.4H248.523C248.619 364.4 248.706 364.456 248.747 364.542C248.788 364.629 248.774 364.731 248.713 364.805L246.276 367.734H247.895C247.997 367.734 248.089 367.797 248.125 367.892C248.162 367.988 248.136 368.096 248.059 368.164L241.455 374.074C241.409 374.115 241.35 374.136 241.291 374.136ZM242.313 368.537H243.804C243.889 368.537 243.968 368.581 244.013 368.653C244.058 368.726 244.063 368.816 244.025 368.893L242.074 372.858L247.249 368.227H245.749C245.653 368.227 245.566 368.172 245.526 368.085C245.485 367.998 245.498 367.896 245.56 367.822L247.997 364.894H244.389L242.313 368.537Z" fill="#33363A"></path><path d="M252.212 377.563C252.212 380.965 248.586 383.724 244.114 383.724C239.642 383.724 236.016 380.965 236.016 377.563C236.016 374.16 239.642 370.082 244.114 370.082C248.586 370.082 252.212 374.16 252.212 377.563Z" fill="#FFF800"></path><path d="M252.212 377.563C252.212 380.965 248.586 383.724 244.114 383.724C239.642 383.724 236.016 380.965 236.016 377.563C236.016 374.159 239.642 371.815 244.114 371.815C248.586 371.815 252.212 374.16 252.212 377.563Z" fill="#FFD400"></path><path d="M245.839 375.95C245.839 376.179 245.067 376.221 244.114 376.221C243.162 376.221 242.39 376.179 242.39 375.95C242.39 375.721 243.162 375.121 244.114 375.121C245.067 375.121 245.839 375.721 245.839 375.95Z" fill="#FFF800"></path><path d="M252.212 377.563C252.212 380.965 248.586 383.724 244.114 383.724C239.642 383.724 236.016 380.965 236.016 377.563C236.016 374.159 237.046 380.581 244.114 380.581C251.182 380.581 252.212 374.16 252.212 377.563Z" fill="#FFB000"></path><path d="M244.114 383.971C239.513 383.971 235.769 381.096 235.769 377.563C235.769 374.063 239.492 369.835 244.114 369.835C248.737 369.835 252.459 374.063 252.459 377.563C252.459 381.096 248.715 383.971 244.114 383.971ZM244.114 370.329C239.765 370.329 236.263 374.286 236.263 377.563C236.263 380.824 239.785 383.477 244.114 383.477C248.443 383.477 251.965 380.824 251.965 377.563C251.965 374.286 248.463 370.329 244.114 370.329Z" fill="#33363A"></path><path d="M235.113 371.451C236.164 373.186 237.636 374.205 239.061 374.382C239.306 372.612 238.917 370.559 237.866 368.824C236.815 367.089 235.343 366.069 233.919 365.893C233.674 367.662 234.063 369.716 235.113 371.451Z" fill="#FFD400"></path><path d="M233.919 365.893C233.674 367.662 234.063 369.716 235.114 371.451C236.164 373.185 237.637 374.205 239.061 374.382L233.919 365.893Z" fill="#FFB000"></path><path d="M239.292 372.113C239.121 370.906 238.701 369.724 238.078 368.696C237.022 366.952 235.517 365.842 233.949 365.648C233.815 365.632 233.693 365.725 233.675 365.859C233.41 367.768 233.857 369.853 234.902 371.579C235.617 372.758 236.542 373.656 237.578 374.175C237.614 374.193 237.651 374.201 237.689 374.201C237.779 374.201 237.866 374.151 237.909 374.065C237.97 373.943 237.921 373.795 237.799 373.734C236.846 373.256 235.991 372.422 235.325 371.323C235.019 370.817 234.768 370.279 234.573 369.724C235.577 369.56 236.739 370.073 236.6 367.587C236.985 367.976 237.341 368.432 237.655 368.952C238.244 369.924 238.641 371.041 238.803 372.182C238.822 372.317 238.948 372.41 239.082 372.392C239.217 372.373 239.311 372.248 239.292 372.113Z" fill="#33363A"></path><path d="M253.115 371.451C252.064 373.186 250.592 374.205 249.168 374.382C248.922 372.612 249.311 370.559 250.362 368.824C251.413 367.089 252.885 366.069 254.309 365.894C254.555 367.662 254.166 369.716 253.115 371.451Z" fill="#FFD400"></path><path d="M254.309 365.893C254.554 367.662 254.166 369.716 253.115 371.451C252.064 373.185 250.592 374.205 249.167 374.382L254.309 365.893Z" fill="#FFB000"></path><path d="M254.554 365.859C254.535 365.726 254.413 365.632 254.279 365.648C252.711 365.842 251.207 366.953 250.151 368.696C249.527 369.725 249.108 370.907 248.937 372.113C248.917 372.248 249.011 372.373 249.146 372.392C249.283 372.411 249.406 372.317 249.425 372.183C249.587 371.041 249.984 369.924 250.573 368.952C250.887 368.433 251.244 367.976 251.628 367.587C251.49 370.073 252.651 369.56 253.655 369.725C253.461 370.28 253.21 370.818 252.904 371.323C252.237 372.423 251.382 373.257 250.429 373.734C250.307 373.795 250.258 373.943 250.319 374.065C250.362 374.152 250.449 374.202 250.54 374.202C250.577 374.202 250.615 374.193 250.65 374.175C251.686 373.656 252.612 372.758 253.326 371.579C254.371 369.854 254.819 367.769 254.554 365.859Z" fill="#33363A"></path><path d="M239.012 379.27C239.65 379.27 240.167 378.753 240.167 378.116C240.167 377.479 239.65 376.962 239.012 376.962C238.375 376.962 237.858 377.479 237.858 378.116C237.858 378.753 238.375 379.27 239.012 379.27Z" fill="#FF1A1A"></path><path d="M240.166 378.116C240.166 378.753 239.65 379.27 239.012 379.27C238.375 379.27 237.858 378.753 237.858 378.116" fill="#D61D1D"></path><path d="M249.216 379.27C249.853 379.27 250.37 378.754 250.37 378.116C250.37 377.479 249.853 376.962 249.216 376.962C248.578 376.962 248.062 377.479 248.062 378.116C248.062 378.754 248.578 379.27 249.216 379.27Z" fill="#FF1A1A"></path><path d="M250.37 378.116C250.37 378.753 249.853 379.27 249.216 379.27C248.578 379.27 248.062 378.753 248.062 378.116" fill="#D61D1D"></path><path d="M245.7 376.883C245.564 376.883 245.453 376.994 245.453 377.13C245.453 377.365 245.262 377.556 245.027 377.556H244.787C244.552 377.556 244.361 377.365 244.361 377.13V376.89C244.361 376.878 244.359 376.867 244.357 376.855L244.869 376.599C244.972 376.548 245.025 376.433 244.999 376.322C244.973 376.21 244.873 376.132 244.759 376.132H243.469C243.355 376.132 243.255 376.21 243.229 376.322C243.203 376.433 243.256 376.548 243.359 376.599L243.87 376.855C243.869 376.867 243.867 376.878 243.867 376.89V377.13C243.867 377.365 243.676 377.556 243.441 377.556H243.201C242.966 377.556 242.775 377.365 242.775 377.13C242.775 376.994 242.664 376.883 242.528 376.883C242.392 376.883 242.281 376.994 242.281 377.13C242.281 377.637 242.694 378.049 243.201 378.049H243.441C243.707 378.049 243.946 377.935 244.114 377.755C244.282 377.935 244.521 378.049 244.787 378.049H245.027C245.534 378.049 245.947 377.637 245.947 377.13C245.947 376.994 245.836 376.883 245.7 376.883Z" fill="#33363A"></path><path d="M241.455 375.215C241.455 375.947 240.861 376.54 240.129 376.54C239.398 376.54 238.804 375.947 238.804 375.215C238.804 374.483 239.398 373.889 240.129 373.889C240.861 373.889 241.455 374.483 241.455 375.215Z" fill="#6D5C4D"></path><path d="M239.47 375.324C239.769 375.324 240.01 375.082 240.01 374.784C240.01 374.486 239.769 374.244 239.47 374.244C239.172 374.244 238.93 374.486 238.93 374.784C238.93 375.082 239.172 375.324 239.47 375.324Z" fill="white"></path><path d="M240.129 373.643C239.595 373.643 239.123 373.911 238.839 374.319C238.822 374.343 238.807 374.367 238.792 374.393C238.644 374.632 238.557 374.913 238.557 375.215C238.557 376.081 239.262 376.786 240.129 376.786C240.996 376.786 241.701 376.081 241.701 375.215C241.701 374.348 240.996 373.643 240.129 373.643ZM240.129 376.293C239.681 376.293 239.297 376.018 239.134 375.629C239.246 375.626 239.383 375.595 239.536 375.564C239.594 375.559 239.651 375.548 239.705 375.531C239.838 375.507 239.981 375.488 240.129 375.488C240.526 375.488 240.882 375.622 241.124 375.629C240.962 376.018 240.577 376.293 240.129 376.293Z" fill="#33363A"></path><path d="M239.47 375.077C239.632 375.077 239.763 374.946 239.763 374.784C239.763 374.622 239.632 374.491 239.47 374.491C239.309 374.491 239.177 374.622 239.177 374.784C239.177 374.946 239.309 375.077 239.47 375.077Z" fill="white"></path><path d="M249.423 375.215C249.423 375.947 248.83 376.54 248.099 376.54C247.367 376.54 246.773 375.947 246.773 375.215C246.773 374.483 247.367 373.889 248.099 373.889C248.83 373.889 249.423 374.483 249.423 375.215Z" fill="#6D5C4D"></path><path d="M247.44 375.324C247.738 375.324 247.979 375.082 247.979 374.784C247.979 374.486 247.738 374.244 247.44 374.244C247.142 374.244 246.9 374.486 246.9 374.784C246.9 375.082 247.142 375.324 247.44 375.324Z" fill="white"></path><path d="M248.099 373.643C247.565 373.643 247.093 373.911 246.809 374.319C246.791 374.342 246.776 374.368 246.761 374.393C246.614 374.633 246.527 374.914 246.527 375.215C246.527 376.081 247.232 376.786 248.099 376.786C248.966 376.786 249.671 376.081 249.671 375.215C249.67 374.348 248.965 373.643 248.099 373.643ZM248.099 376.293C247.651 376.293 247.266 376.018 247.103 375.629C247.217 375.626 247.355 375.596 247.51 375.563C247.565 375.558 247.618 375.548 247.67 375.532C247.805 375.508 247.948 375.488 248.099 375.488C248.496 375.488 248.851 375.622 249.094 375.629C248.931 376.018 248.547 376.293 248.099 376.293Z" fill="#33363A"></path><path d="M247.44 375.077C247.602 375.077 247.733 374.946 247.733 374.784C247.733 374.622 247.602 374.491 247.44 374.491C247.279 374.491 247.147 374.622 247.147 374.784C247.147 374.946 247.279 375.077 247.44 375.077Z" fill="white"></path><circle cx="244" cy="374" r="20" fill="#FFD400" fill-opacity="0.34"></circle><circle cx="121" cy="120" r="20" fill="#93F9EA" fill-opacity="0.46"></circle><path d="M127.303 112.54C127.303 112.541 127.304 112.541 127.304 112.541C126.761 110.105 124.588 108.284 121.989 108.284C118.98 108.284 116.541 110.723 116.541 113.732C116.541 115.939 117.854 117.839 119.742 118.695C119.657 118.311 119.61 117.913 119.61 117.503C119.61 116.249 120.035 115.095 120.747 114.175C121.028 115.762 122.411 116.969 124.08 116.969C125.951 116.969 127.467 115.452 127.467 113.581C127.467 113.218 127.409 112.868 127.303 112.54Z" fill="#93F9EA"></path><path d="M119.61 117.504C119.61 116.249 120.035 115.095 120.747 114.175C121.028 115.762 122.411 116.969 124.08 116.969C125.704 116.969 127.061 115.825 127.39 114.298C127.366 114.186 127.338 114.074 127.303 113.966C127.303 113.967 127.304 113.967 127.305 113.967C126.761 111.532 124.588 109.71 121.989 109.71C119.224 109.71 116.941 111.771 116.589 114.44C116.831 116.294 118.003 117.852 119.622 118.635C119.63 118.497 119.642 118.36 119.66 118.224C119.629 117.988 119.61 117.748 119.61 117.504Z" fill="#70D3E0"></path><path d="M127.582 112.48C127.582 112.48 127.582 112.479 127.582 112.479C127.003 109.884 124.651 108 121.989 108C118.828 108 116.257 110.571 116.257 113.732C116.257 115.976 117.579 118.026 119.625 118.953C119.663 118.97 119.703 118.979 119.742 118.979C119.806 118.979 119.87 118.957 119.921 118.915C120.005 118.847 120.043 118.738 120.02 118.633C119.936 118.26 119.894 117.88 119.894 117.503C119.894 116.552 120.148 115.643 120.633 114.842C121.151 116.27 122.514 117.253 124.08 117.253C126.104 117.253 127.752 115.606 127.752 113.581C127.752 113.209 127.695 112.839 127.582 112.48ZM124.08 116.685C122.762 116.685 121.615 115.862 121.172 114.663C121.179 114.617 121.176 114.568 121.158 114.521C120.685 113.286 121.306 111.896 122.541 111.424C123.005 111.246 123.511 111.26 123.965 111.463C124.42 111.666 124.768 112.033 124.945 112.498C125.082 112.855 125.072 113.244 124.916 113.594C124.76 113.943 124.477 114.211 124.119 114.347C123.558 114.563 122.927 114.281 122.712 113.72C122.551 113.3 122.762 112.827 123.182 112.667C123.328 112.611 123.401 112.447 123.345 112.3C123.289 112.153 123.125 112.08 122.979 112.136C122.267 112.408 121.909 113.21 122.182 113.923C122.434 114.582 123.064 114.987 123.731 114.987C123.928 114.987 124.128 114.952 124.322 114.878C124.821 114.687 125.216 114.313 125.434 113.825C125.652 113.337 125.667 112.794 125.476 112.295C125.244 111.689 124.79 111.209 124.197 110.944C123.604 110.679 122.944 110.661 122.338 110.893C121.021 111.397 120.272 112.743 120.463 114.084C119.721 115.079 119.326 116.258 119.326 117.503C119.326 117.728 119.34 117.954 119.367 118.179C117.807 117.258 116.825 115.567 116.825 113.732C116.825 110.884 119.141 108.568 121.989 108.568C124.377 108.568 126.49 110.252 127.021 112.576C127.024 112.593 127.027 112.611 127.033 112.627C127.133 112.938 127.184 113.259 127.184 113.581C127.184 115.293 125.791 116.685 124.08 116.685Z" fill="#33363A"></path><path d="M130.316 124.82C130.316 128.734 126.145 131.908 121 131.908C115.855 131.908 111.684 128.734 111.684 124.82C111.684 120.905 115.855 116.214 121 116.214C126.145 116.214 130.316 120.905 130.316 124.82Z" fill="#93F9EA"></path><path d="M130.316 124.82C130.316 128.734 126.145 131.908 121 131.908C115.855 131.908 111.684 128.734 111.684 124.82C111.684 120.905 115.855 118.208 121 118.208C126.145 118.208 130.316 120.905 130.316 124.82Z" fill="#7FE5D8"></path><path d="M122.992 127.481C122.992 127.744 122.104 127.792 121.008 127.792C119.912 127.792 119.024 127.744 119.024 127.481C119.024 127.217 119.912 126.527 121.008 126.527C122.104 126.527 122.992 127.217 122.992 127.481Z" fill="#93F9EA"></path><path d="M130.316 124.82C130.316 128.735 126.145 131.908 121 131.908C115.855 131.908 111.684 128.734 111.684 124.82C111.684 120.905 112.869 128.292 121 128.292C129.131 128.292 130.316 120.905 130.316 124.82Z" fill="#70D3E0"></path><path d="M121 132.193C115.707 132.193 111.4 128.885 111.4 124.82C111.4 120.794 115.682 115.93 121 115.93C126.318 115.93 130.6 120.794 130.6 124.82C130.6 128.885 126.293 132.193 121 132.193ZM121 116.498C115.997 116.498 111.968 121.051 111.968 124.82C111.968 128.572 116.02 131.625 121 131.625C125.98 131.625 130.032 128.572 130.032 124.82C130.032 121.051 126.003 116.498 121 116.498Z" fill="#33363A"></path><path d="M117.94 125.938C117.94 126.781 117.258 127.463 116.416 127.463C115.574 127.463 114.892 126.781 114.892 125.938C114.892 125.097 115.574 124.414 116.416 124.414C117.258 124.414 117.94 125.097 117.94 125.938Z" fill="#893015"></path><path d="M115.658 126.064C116.001 126.064 116.279 125.786 116.279 125.443C116.279 125.1 116.001 124.822 115.658 124.822C115.315 124.822 115.037 125.1 115.037 125.443C115.037 125.786 115.315 126.064 115.658 126.064Z" fill="white"></path><path d="M116.416 124.13C115.804 124.13 115.263 124.437 114.935 124.904C114.913 124.933 114.894 124.965 114.875 124.997C114.707 125.272 114.608 125.593 114.608 125.938C114.608 126.935 115.419 127.746 116.416 127.746C117.413 127.746 118.224 126.935 118.224 125.938C118.224 124.941 117.413 124.13 116.416 124.13ZM116.416 127.178C115.901 127.178 115.459 126.863 115.271 126.415C115.402 126.411 115.56 126.377 115.739 126.34C115.802 126.334 115.863 126.322 115.923 126.304C116.078 126.276 116.243 126.253 116.416 126.253C116.873 126.253 117.282 126.407 117.561 126.415C117.374 126.863 116.931 127.178 116.416 127.178Z" fill="#33363A"></path><path d="M115.658 125.78C115.844 125.78 115.995 125.629 115.995 125.443C115.995 125.257 115.844 125.106 115.658 125.106C115.472 125.106 115.321 125.257 115.321 125.443C115.321 125.629 115.472 125.78 115.658 125.78Z" fill="white"></path><path d="M127.108 125.938C127.108 126.781 126.426 127.463 125.584 127.463C124.742 127.463 124.06 126.781 124.06 125.938C124.06 125.097 124.742 124.414 125.584 124.414C126.426 124.414 127.108 125.097 127.108 125.938Z" fill="#893015"></path><path d="M124.826 126.063C125.169 126.063 125.447 125.785 125.447 125.442C125.447 125.1 125.169 124.822 124.826 124.822C124.483 124.822 124.205 125.1 124.205 125.442C124.205 125.785 124.483 126.063 124.826 126.063Z" fill="white"></path><path d="M125.584 124.13C124.971 124.13 124.429 124.437 124.102 124.905C124.08 124.934 124.062 124.964 124.044 124.995C123.875 125.27 123.776 125.592 123.776 125.938C123.776 126.935 124.587 127.746 125.584 127.746C126.581 127.746 127.392 126.935 127.392 125.938C127.392 124.941 126.581 124.13 125.584 124.13ZM125.584 127.178C125.069 127.178 124.626 126.863 124.439 126.415C124.569 126.411 124.728 126.377 124.906 126.34C124.97 126.334 125.031 126.322 125.091 126.304C125.246 126.276 125.411 126.253 125.584 126.253C126.041 126.253 126.449 126.407 126.729 126.415C126.542 126.863 126.099 127.178 125.584 127.178Z" fill="#33363A"></path><path d="M124.826 125.78C125.012 125.78 125.163 125.629 125.163 125.443C125.163 125.257 125.012 125.106 124.826 125.106C124.64 125.106 124.489 125.257 124.489 125.443C124.489 125.629 124.64 125.78 124.826 125.78Z" fill="white"></path><path d="M126.848 128.01C126.708 127.942 126.537 127.999 126.468 128.141C126.462 128.154 125.796 129.461 123.547 129.424C123.491 129.423 123.436 129.423 123.382 129.423C121.974 129.423 121.312 129.722 121.001 130.01C120.677 129.71 119.976 129.397 118.453 129.424C118.422 129.425 118.392 129.425 118.362 129.425C116.211 129.425 115.559 128.196 115.531 128.139C115.461 127.999 115.291 127.942 115.151 128.01C115.011 128.079 114.952 128.249 115.021 128.39C115.054 128.456 115.835 129.993 118.362 129.993C118.395 129.993 118.429 129.993 118.462 129.992C120.18 129.962 120.669 130.401 120.712 130.572C120.709 130.56 120.709 130.552 120.709 130.552L121 130.526L121.291 130.552C121.291 130.552 121.291 130.559 121.288 130.572C121.331 130.401 121.811 129.963 123.538 129.992C126.138 130.035 126.946 128.457 126.979 128.39C127.048 128.249 126.989 128.079 126.848 128.01Z" fill="#33363A"></path><path d="M120.533 129.022C120.457 129.022 120.382 128.992 120.326 128.933L120.042 128.633C119.935 128.518 119.94 128.339 120.054 128.231C120.168 128.124 120.347 128.128 120.455 128.243L120.739 128.543C120.847 128.657 120.842 128.837 120.728 128.945C120.673 128.996 120.603 129.022 120.533 129.022Z" fill="#33363A"></path><path d="M121.467 129.022C121.397 129.022 121.327 128.996 121.272 128.945C121.158 128.837 121.153 128.657 121.261 128.543L121.544 128.243C121.653 128.128 121.832 128.124 121.946 128.231C122.06 128.339 122.065 128.519 121.958 128.632L121.674 128.933C121.618 128.992 121.542 129.022 121.467 129.022Z" fill="#33363A"></path><path d="M118.186 123.706C118.135 123.706 118.085 123.692 118.039 123.664L117.154 123.128C117.02 123.047 116.977 122.872 117.058 122.738C117.139 122.603 117.314 122.561 117.448 122.642L118.333 123.179C118.467 123.26 118.51 123.435 118.429 123.569C118.375 123.657 118.282 123.706 118.186 123.706Z" fill="#33363A"></path><path d="M123.814 123.706C123.718 123.706 123.624 123.657 123.571 123.569C123.49 123.435 123.533 123.26 123.667 123.179L124.552 122.642C124.685 122.561 124.861 122.603 124.942 122.738C125.023 122.872 124.98 123.047 124.846 123.128L123.961 123.664C123.915 123.692 123.864 123.706 123.814 123.706Z" fill="#33363A"></path><circle cx="1646" cy="639" r="20" fill="#93F9EA" fill-opacity="0.46"></circle><path d="M1652.3 631.54C1652.3 631.541 1652.3 631.541 1652.3 631.541C1651.76 629.105 1649.59 627.284 1646.99 627.284C1643.98 627.284 1641.54 629.723 1641.54 632.732C1641.54 634.939 1642.85 636.839 1644.74 637.695C1644.66 637.311 1644.61 636.913 1644.61 636.503C1644.61 635.249 1645.03 634.095 1645.75 633.175C1646.03 634.762 1647.41 635.969 1649.08 635.969C1650.95 635.969 1652.47 634.452 1652.47 632.581C1652.47 632.218 1652.41 631.868 1652.3 631.54Z" fill="#93F9EA"></path><path d="M1644.61 636.503C1644.61 635.249 1645.03 634.095 1645.75 633.175C1646.03 634.762 1647.41 635.969 1649.08 635.969C1650.7 635.969 1652.06 634.825 1652.39 633.298C1652.37 633.186 1652.34 633.074 1652.3 632.966C1652.3 632.966 1652.3 632.966 1652.3 632.967C1651.76 630.531 1649.59 628.71 1646.99 628.71C1644.22 628.71 1641.94 630.771 1641.59 633.44C1641.83 635.293 1643 636.852 1644.62 637.635C1644.63 637.496 1644.64 637.36 1644.66 637.224C1644.63 636.988 1644.61 636.748 1644.61 636.503Z" fill="#70D3E0"></path><path d="M1652.58 631.48C1652.58 631.48 1652.58 631.479 1652.58 631.479C1652 628.884 1649.65 627 1646.99 627C1643.83 627 1641.26 629.571 1641.26 632.732C1641.26 634.976 1642.58 637.026 1644.62 637.953C1644.66 637.97 1644.7 637.979 1644.74 637.979C1644.81 637.979 1644.87 637.957 1644.92 637.915C1645 637.847 1645.04 637.738 1645.02 637.633C1644.94 637.26 1644.89 636.88 1644.89 636.503C1644.89 635.552 1645.15 634.643 1645.63 633.842C1646.15 635.27 1647.51 636.253 1649.08 636.253C1651.1 636.253 1652.75 634.606 1652.75 632.581C1652.75 632.209 1652.69 631.839 1652.58 631.48ZM1649.08 635.685C1647.76 635.685 1646.62 634.862 1646.17 633.663C1646.18 633.617 1646.18 633.568 1646.16 633.521C1645.69 632.286 1646.31 630.896 1647.54 630.424C1648 630.246 1648.51 630.26 1648.97 630.463C1649.42 630.666 1649.77 631.033 1649.95 631.498C1650.08 631.855 1650.07 632.244 1649.92 632.594C1649.76 632.943 1649.48 633.211 1649.12 633.347C1648.56 633.563 1647.93 633.281 1647.71 632.72C1647.55 632.3 1647.76 631.827 1648.18 631.667C1648.33 631.611 1648.4 631.447 1648.35 631.3C1648.29 631.153 1648.12 631.08 1647.98 631.136C1647.27 631.408 1646.91 632.21 1647.18 632.923C1647.43 633.582 1648.06 633.987 1648.73 633.987C1648.93 633.987 1649.13 633.952 1649.32 633.878C1649.82 633.687 1650.22 633.313 1650.43 632.825C1650.65 632.337 1650.67 631.794 1650.48 631.295C1650.24 630.689 1649.79 630.209 1649.2 629.944C1648.6 629.679 1647.94 629.661 1647.34 629.893C1646.02 630.397 1645.27 631.743 1645.46 633.084C1644.72 634.079 1644.33 635.258 1644.33 636.503C1644.33 636.728 1644.34 636.954 1644.37 637.179C1642.81 636.258 1641.82 634.567 1641.82 632.732C1641.82 629.884 1644.14 627.568 1646.99 627.568C1649.38 627.568 1651.49 629.252 1652.02 631.576C1652.02 631.593 1652.03 631.611 1652.03 631.627C1652.13 631.938 1652.18 632.259 1652.18 632.581C1652.18 634.293 1650.79 635.685 1649.08 635.685Z" fill="#33363A"></path><path d="M1655.32 643.82C1655.32 647.734 1651.14 650.908 1646 650.908C1640.85 650.908 1636.68 647.734 1636.68 643.82C1636.68 639.905 1640.85 635.214 1646 635.214C1651.14 635.214 1655.32 639.905 1655.32 643.82Z" fill="#93F9EA"></path><path d="M1655.32 643.82C1655.32 647.734 1651.14 650.908 1646 650.908C1640.85 650.908 1636.68 647.734 1636.68 643.82C1636.68 639.905 1640.85 637.208 1646 637.208C1651.14 637.208 1655.32 639.905 1655.32 643.82Z" fill="#7FE5D8"></path><path d="M1647.99 646.481C1647.99 646.745 1647.1 646.792 1646.01 646.792C1644.91 646.792 1644.02 646.745 1644.02 646.481C1644.02 646.217 1644.91 645.527 1646.01 645.527C1647.1 645.527 1647.99 646.217 1647.99 646.481Z" fill="#93F9EA"></path><path d="M1655.32 643.82C1655.32 647.735 1651.14 650.908 1646 650.908C1640.85 650.908 1636.68 647.734 1636.68 643.82C1636.68 639.905 1637.87 647.292 1646 647.292C1654.13 647.292 1655.32 639.905 1655.32 643.82Z" fill="#70D3E0"></path><path d="M1646 651.193C1640.71 651.193 1636.4 647.885 1636.4 643.82C1636.4 639.794 1640.68 634.93 1646 634.93C1651.32 634.93 1655.6 639.794 1655.6 643.82C1655.6 647.885 1651.29 651.193 1646 651.193ZM1646 635.498C1641 635.498 1636.97 640.051 1636.97 643.82C1636.97 647.572 1641.02 650.625 1646 650.625C1650.98 650.625 1655.03 647.572 1655.03 643.82C1655.03 640.051 1651 635.498 1646 635.498Z" fill="#33363A"></path><path d="M1642.94 644.938C1642.94 645.781 1642.26 646.462 1641.42 646.462C1640.57 646.462 1639.89 645.781 1639.89 644.938C1639.89 644.096 1640.57 643.414 1641.42 643.414C1642.26 643.414 1642.94 644.096 1642.94 644.938Z" fill="#893015"></path><path d="M1640.66 645.064C1641 645.064 1641.28 644.786 1641.28 644.443C1641.28 644.1 1641 643.822 1640.66 643.822C1640.31 643.822 1640.04 644.1 1640.04 644.443C1640.04 644.786 1640.31 645.064 1640.66 645.064Z" fill="white"></path><path d="M1641.42 643.13C1640.8 643.13 1640.26 643.437 1639.93 643.904C1639.91 643.933 1639.89 643.965 1639.87 643.997C1639.71 644.272 1639.61 644.593 1639.61 644.938C1639.61 645.935 1640.42 646.746 1641.42 646.746C1642.41 646.746 1643.22 645.935 1643.22 644.938C1643.22 643.941 1642.41 643.13 1641.42 643.13ZM1641.42 646.178C1640.9 646.178 1640.46 645.863 1640.27 645.415C1640.4 645.411 1640.56 645.377 1640.74 645.34C1640.8 645.334 1640.86 645.322 1640.92 645.304C1641.08 645.276 1641.24 645.253 1641.42 645.253C1641.87 645.253 1642.28 645.407 1642.56 645.415C1642.37 645.863 1641.93 646.178 1641.42 646.178Z" fill="#33363A"></path><path d="M1640.66 644.78C1640.84 644.78 1640.99 644.629 1640.99 644.443C1640.99 644.257 1640.84 644.106 1640.66 644.106C1640.47 644.106 1640.32 644.257 1640.32 644.443C1640.32 644.629 1640.47 644.78 1640.66 644.78Z" fill="white"></path><path d="M1652.11 644.938C1652.11 645.781 1651.43 646.462 1650.58 646.462C1649.74 646.462 1649.06 645.781 1649.06 644.938C1649.06 644.096 1649.74 643.414 1650.58 643.414C1651.43 643.414 1652.11 644.096 1652.11 644.938Z" fill="#893015"></path><path d="M1649.83 645.064C1650.17 645.064 1650.45 644.786 1650.45 644.443C1650.45 644.1 1650.17 643.822 1649.83 643.822C1649.48 643.822 1649.2 644.1 1649.2 644.443C1649.2 644.786 1649.48 645.064 1649.83 645.064Z" fill="white"></path><path d="M1650.58 643.13C1649.97 643.13 1649.43 643.437 1649.1 643.905C1649.08 643.934 1649.06 643.964 1649.04 643.995C1648.87 644.27 1648.78 644.592 1648.78 644.938C1648.78 645.935 1649.59 646.746 1650.58 646.746C1651.58 646.746 1652.39 645.935 1652.39 644.938C1652.39 643.941 1651.58 643.13 1650.58 643.13ZM1650.58 646.178C1650.07 646.178 1649.63 645.863 1649.44 645.415C1649.57 645.411 1649.73 645.377 1649.91 645.34C1649.97 645.334 1650.03 645.322 1650.09 645.304C1650.25 645.276 1650.41 645.253 1650.58 645.253C1651.04 645.253 1651.45 645.407 1651.73 645.415C1651.54 645.863 1651.1 646.178 1650.58 646.178Z" fill="#33363A"></path><path d="M1649.83 644.78C1650.01 644.78 1650.16 644.629 1650.16 644.443C1650.16 644.257 1650.01 644.106 1649.83 644.106C1649.64 644.106 1649.49 644.257 1649.49 644.443C1649.49 644.629 1649.64 644.78 1649.83 644.78Z" fill="white"></path><path d="M1651.85 647.01C1651.71 646.942 1651.54 646.999 1651.47 647.141C1651.46 647.154 1650.8 648.461 1648.55 648.424C1648.49 648.423 1648.44 648.423 1648.38 648.423C1646.97 648.423 1646.31 648.722 1646 649.01C1645.68 648.71 1644.98 648.397 1643.45 648.424C1643.42 648.425 1643.39 648.425 1643.36 648.425C1641.21 648.425 1640.56 647.196 1640.53 647.139C1640.46 646.999 1640.29 646.942 1640.15 647.01C1640.01 647.079 1639.95 647.249 1640.02 647.39C1640.05 647.456 1640.83 648.993 1643.36 648.993C1643.4 648.993 1643.43 648.993 1643.46 648.992C1645.18 648.962 1645.67 649.401 1645.71 649.572C1645.71 649.56 1645.71 649.552 1645.71 649.552L1646 649.526L1646.29 649.552C1646.29 649.552 1646.29 649.559 1646.29 649.572C1646.33 649.401 1646.81 648.963 1648.54 648.992C1651.14 649.035 1651.95 647.457 1651.98 647.39C1652.05 647.249 1651.99 647.079 1651.85 647.01Z" fill="#33363A"></path><path d="M1645.53 648.023C1645.46 648.023 1645.38 647.993 1645.33 647.934L1645.04 647.633C1644.93 647.519 1644.94 647.339 1645.05 647.231C1645.17 647.124 1645.35 647.129 1645.46 647.243L1645.74 647.544C1645.85 647.658 1645.84 647.837 1645.73 647.945C1645.67 647.997 1645.6 648.023 1645.53 648.023Z" fill="#33363A"></path><path d="M1646.47 648.023C1646.4 648.023 1646.33 647.997 1646.27 647.945C1646.16 647.837 1646.15 647.658 1646.26 647.544L1646.54 647.243C1646.65 647.129 1646.83 647.124 1646.95 647.231C1647.06 647.339 1647.07 647.519 1646.96 647.633L1646.67 647.934C1646.62 647.993 1646.54 648.023 1646.47 648.023Z" fill="#33363A"></path><path d="M1643.19 642.705C1643.13 642.705 1643.08 642.692 1643.04 642.664L1642.15 642.127C1642.02 642.046 1641.98 641.872 1642.06 641.737C1642.14 641.603 1642.31 641.56 1642.45 641.642L1643.33 642.178C1643.47 642.26 1643.51 642.434 1643.43 642.568C1643.37 642.657 1643.28 642.705 1643.19 642.705Z" fill="#33363A"></path><path d="M1648.81 642.705C1648.72 642.705 1648.62 642.657 1648.57 642.568C1648.49 642.434 1648.53 642.26 1648.67 642.178L1649.55 641.642C1649.69 641.56 1649.86 641.603 1649.94 641.737C1650.02 641.872 1649.98 642.046 1649.85 642.127L1648.96 642.664C1648.91 642.692 1648.86 642.705 1648.81 642.705Z" fill="#33363A"></path><circle cx="128" cy="639" r="20" fill="#009BE8" fill-opacity="0.44"></circle><path d="M119.126 631.108C117.953 632.719 117.707 634.916 118.684 636.808C119.661 638.701 121.594 639.773 123.588 639.751C124.761 638.139 125.007 635.942 124.03 634.05C123.053 632.157 121.12 631.085 119.126 631.108Z" fill="#0D5C9E"></path><path d="M123.588 639.751C124.761 638.139 125.007 635.942 124.03 634.049C123.053 632.157 121.12 631.085 119.126 631.107" fill="#009BE8"></path><path d="M123.526 640.001C121.38 640.001 119.444 638.826 118.462 636.922C117.47 635 117.647 632.715 118.924 630.96C118.971 630.896 119.045 630.859 119.123 630.858C119.145 630.857 119.168 630.857 119.19 630.857C121.334 630.857 123.269 632.032 124.252 633.935C125.244 635.857 125.067 638.142 123.79 639.898C123.744 639.961 123.67 639.999 123.591 640C123.569 640 123.547 640.001 123.526 640.001ZM119.255 631.357C118.156 632.944 118.02 634.977 118.906 636.693C119.792 638.41 121.528 639.477 123.459 639.501C124.558 637.914 124.694 635.88 123.808 634.164C122.922 632.447 121.186 631.381 119.255 631.357Z" fill="#33363A"></path><path d="M136.505 631.108C137.678 632.719 137.924 634.916 136.947 636.808C135.97 638.701 134.037 639.773 132.043 639.751C130.87 638.139 130.625 635.942 131.601 634.05C132.578 632.157 134.511 631.085 136.505 631.108Z" fill="#0D5C9E"></path><path d="M132.043 639.751C130.87 638.139 130.625 635.942 131.601 634.049C132.578 632.157 134.511 631.085 136.505 631.107" fill="#009BE8"></path><path d="M132.105 640.001C132.084 640.001 132.062 640 132.04 640C131.961 639.999 131.888 639.961 131.841 639.898C130.564 638.142 130.387 635.857 131.379 633.935C132.362 632.032 134.297 630.857 136.442 630.857C136.463 630.857 136.485 630.857 136.508 630.858C136.586 630.859 136.66 630.896 136.707 630.96C137.984 632.715 138.161 635 137.169 636.923C136.187 638.826 134.251 640.001 132.105 640.001ZM136.376 631.357C134.445 631.381 132.709 632.447 131.823 634.164C130.937 635.88 131.073 637.913 132.172 639.501C134.103 639.477 135.839 638.41 136.725 636.694C137.611 634.977 137.475 632.944 136.376 631.357Z" fill="#33363A"></path><path d="M138.182 640.026C138.182 644.382 133.541 647.913 127.816 647.913C122.091 647.913 117.45 644.382 117.45 640.026C117.45 635.67 122.091 630.45 127.816 630.45C133.541 630.45 138.182 635.67 138.182 640.026Z" fill="#009BE8"></path><path d="M138.182 640.026C138.182 644.382 133.541 647.913 127.816 647.913C122.091 647.913 117.45 644.382 117.45 640.026C117.45 635.67 122.091 632.668 127.816 632.668C133.541 632.668 138.182 635.67 138.182 640.026Z" fill="#0D5C9E"></path><path d="M138.182 640.026C138.182 644.382 133.541 647.913 127.816 647.913C122.091 647.913 117.45 644.382 117.45 640.026C117.45 635.67 118.769 643.889 127.816 643.889C136.863 643.889 138.182 635.67 138.182 640.026Z" fill="#063B66"></path><path d="M130.83 634.981L127.816 637.996L124.801 634.981C120.978 635.573 118.218 637.379 118.218 640.61C118.218 644.643 122.515 647.913 127.816 647.913C133.116 647.913 137.413 644.643 137.413 640.61C137.413 637.379 134.653 635.573 130.83 634.981Z" fill="#F4D7B8"></path><path d="M134.543 636.144C133.507 635.584 132.241 635.2 130.83 634.981L127.816 637.996L124.801 634.981C123.39 635.2 122.124 635.584 121.088 636.144C122.82 637.44 125.194 638.24 127.816 638.24C130.437 638.24 132.811 637.44 134.543 636.144Z" fill="#FCE6C8"></path><path d="M137.413 640.61C137.413 640.168 137.36 639.753 137.261 639.364C136.067 640.725 133.429 643.889 127.816 643.889C122.202 643.889 119.565 640.725 118.37 639.364C118.271 639.753 118.218 640.168 118.218 640.61C118.218 644.517 122.251 647.708 127.322 647.903C127.485 647.909 127.65 647.913 127.816 647.913C127.981 647.913 128.146 647.909 128.31 647.903C133.381 647.708 137.413 644.517 137.413 640.61Z" fill="#EAC79D"></path><path d="M127.816 648.163C122.386 648.163 117.968 644.775 117.968 640.61C117.968 637.499 120.381 635.412 124.763 634.735C124.842 634.723 124.922 634.749 124.978 634.805L127.816 637.643L130.653 634.805C130.71 634.748 130.79 634.722 130.868 634.734C135.25 635.412 137.663 637.498 137.663 640.61C137.663 644.775 133.245 648.163 127.816 648.163ZM124.715 635.248C122.323 635.638 118.468 636.851 118.468 640.61C118.468 644.499 122.661 647.663 127.816 647.663C132.97 647.663 137.163 644.499 137.163 640.61C137.163 636.85 133.308 635.638 130.916 635.248L127.992 638.172C127.898 638.266 127.733 638.266 127.639 638.172L124.715 635.248Z" fill="#33363A"></path><path d="M127.816 648.163C121.962 648.163 117.2 644.512 117.2 640.026C117.2 635.575 121.935 630.2 127.816 630.2C133.696 630.2 138.431 635.575 138.431 640.026C138.431 644.512 133.669 648.163 127.816 648.163ZM127.816 630.699C122.212 630.699 117.699 635.802 117.699 640.026C117.699 644.237 122.238 647.663 127.816 647.663C133.394 647.663 137.932 644.237 137.932 640.026C137.932 635.802 133.42 630.699 127.816 630.699Z" fill="#33363A"></path><path d="M129.882 642.219C129.882 642.654 128.957 642.41 127.816 642.41C126.674 642.41 125.749 642.654 125.749 642.219C125.749 641.784 126.674 641.431 127.816 641.431C128.957 641.431 129.882 641.784 129.882 642.219Z" fill="#FCE6C8"></path><path d="M126.124 640.769C126.021 640.769 125.925 640.705 125.889 640.603C125.717 640.121 125.377 639.809 124.88 639.676C124.417 639.552 123.846 639.597 123.272 639.802C123.142 639.848 122.999 639.78 122.953 639.65C122.907 639.521 122.974 639.378 123.104 639.331C123.773 639.093 124.449 639.044 125.009 639.194C125.665 639.369 126.132 639.799 126.359 640.436C126.405 640.566 126.338 640.709 126.208 640.755C126.18 640.764 126.152 640.769 126.124 640.769Z" fill="#33363A"></path><path d="M129.508 640.769C129.48 640.769 129.451 640.765 129.424 640.755C129.294 640.708 129.226 640.565 129.272 640.436C129.499 639.799 129.966 639.369 130.623 639.194C131.182 639.044 131.859 639.093 132.527 639.331C132.657 639.378 132.725 639.52 132.678 639.65C132.632 639.78 132.489 639.848 132.359 639.802C131.785 639.597 131.214 639.552 130.752 639.676C130.254 639.809 129.915 640.121 129.743 640.603C129.706 640.705 129.61 640.769 129.508 640.769Z" fill="#33363A"></path><path d="M131.287 642.073C131.267 642.063 131.245 642.055 131.221 642.051L130.636 641.951C130.571 641.939 130.504 641.955 130.45 641.993C130.396 642.032 130.359 642.09 130.348 642.155L130.251 642.722C129.714 642.879 128.896 643.014 127.815 643.014C126.735 643.014 125.917 642.879 125.38 642.722L125.283 642.155C125.272 642.09 125.235 642.032 125.181 641.993C125.127 641.955 125.059 641.939 124.995 641.951L124.41 642.051C124.386 642.055 124.364 642.063 124.344 642.073C124.223 642.091 124.131 642.194 124.131 642.319C124.131 643.14 126.041 643.513 127.815 643.513C129.59 643.513 131.5 643.14 131.5 642.319C131.5 642.194 131.408 642.091 131.287 642.073ZM124.838 642.513C124.824 642.505 124.814 642.498 124.801 642.491L124.833 642.485L124.838 642.513ZM130.799 642.485L130.83 642.491C130.818 642.498 130.808 642.505 130.794 642.513L130.799 642.485Z" fill="#33363A"></path><circle cx="1467" cy="80" r="20" fill="#E5B076" fill-opacity="0.57"></circle><path d="M1475.94 84.6975C1475.94 87.5287 1471.94 90.7888 1467 90.7888C1462.06 90.7888 1458.06 87.5288 1458.06 84.6975C1458.06 81.866 1462.06 79.5706 1467 79.5706C1471.94 79.5706 1475.94 81.866 1475.94 84.6975Z" fill="#FFECD2"></path><path d="M1475.94 84.6975C1475.94 87.5287 1471.94 89.8008 1467 89.8008C1462.06 89.8008 1458.06 87.5288 1458.06 84.6975C1458.06 81.866 1462.06 79.5706 1467 79.5706C1471.94 79.5706 1475.94 81.866 1475.94 84.6975Z" fill="#EFC99A"></path><path d="M1467 91.0507C1461.82 91.0507 1457.8 87.6357 1457.8 84.6978C1457.8 81.7265 1461.93 79.3093 1467 79.3093C1472.07 79.3093 1476.2 81.7265 1476.2 84.6978C1476.2 87.6357 1472.18 91.0507 1467 91.0507ZM1467 79.8324C1462.22 79.8324 1458.32 82.0151 1458.32 84.6978C1458.32 87.3384 1462.19 90.5275 1467 90.5275C1471.81 90.5275 1475.68 87.3384 1475.68 84.6978C1475.68 82.0149 1471.78 79.8324 1467 79.8324Z" fill="#33363A"></path><path d="M1475.58 82.6825C1475.58 86.2879 1471.74 89.2113 1467 89.2113C1462.26 89.2113 1458.42 86.2877 1458.42 82.6825C1458.42 79.0764 1462.26 74.7556 1467 74.7556C1471.74 74.7556 1475.58 79.0764 1475.58 82.6825Z" fill="#E5B076"></path><path d="M1475.58 82.6826C1475.58 86.288 1471.74 89.2114 1467 89.2114C1462.26 89.2114 1458.42 86.2878 1458.42 82.6826C1458.42 79.0765 1462.26 76.592 1467 76.592C1471.74 76.592 1475.58 79.0765 1475.58 82.6826Z" fill="#D3964C"></path><path d="M1468.83 83.3725C1468.83 83.6154 1468.01 83.659 1467 83.659C1465.99 83.659 1465.17 83.6154 1465.17 83.3725C1465.17 83.1292 1465.99 82.4941 1467 82.4941C1468.01 82.494 1468.83 83.1292 1468.83 83.3725Z" fill="#E5B076"></path><path d="M1475.58 82.6828C1475.58 86.2881 1471.74 89.2115 1467 89.2115C1462.26 89.2115 1458.42 86.288 1458.42 82.6828C1458.42 79.0764 1459.51 85.8808 1467 85.8808C1474.49 85.8808 1475.58 79.0764 1475.58 82.6828Z" fill="#C4833D"></path><path d="M1467 89.4729C1462.12 89.4729 1458.16 86.4268 1458.16 82.6826C1458.16 78.9736 1462.1 74.4941 1467 74.4941C1471.9 74.4941 1475.84 78.9736 1475.84 82.6826C1475.84 86.4268 1471.88 89.4729 1467 89.4729ZM1467 75.0173C1462.39 75.0173 1458.68 79.2106 1458.68 82.6826C1458.68 86.1383 1462.41 88.9498 1467 88.9498C1471.59 88.9498 1475.32 86.1383 1475.32 82.6826C1475.32 79.2104 1471.61 75.0173 1467 75.0173Z" fill="#33363A"></path><path d="M1459.56 74.7343C1459.53 76.883 1460.29 78.6234 1461.48 79.5769C1462.68 78.12 1463.48 76.0533 1463.5 73.9043C1463.52 71.7555 1462.77 70.0151 1461.58 69.0618C1460.37 70.5185 1459.58 72.5854 1459.56 74.7343Z" fill="#D3964C"></path><path d="M1461.58 69.0618C1460.37 70.5185 1459.58 72.5854 1459.56 74.7343C1459.53 76.883 1460.29 78.6234 1461.48 79.5769L1461.58 69.0618Z" fill="#C4833D"></path><path d="M1460.48 78.6882C1460.39 78.6882 1460.3 78.6439 1460.26 78.5637C1459.61 77.5175 1459.28 76.1924 1459.29 74.7317C1459.32 72.5943 1460.08 70.4668 1461.38 68.8946C1461.47 68.7846 1461.63 68.7682 1461.75 68.8578C1463.05 69.9074 1463.79 71.7476 1463.76 73.907C1463.75 75.1822 1463.47 76.4808 1462.95 77.6625C1462.89 77.7945 1462.74 77.8551 1462.61 77.7968C1462.47 77.7387 1462.41 77.5844 1462.47 77.4521C1462.96 76.3345 1463.23 75.1067 1463.24 73.9016C1463.26 72.0189 1462.67 70.4098 1461.62 69.4369C1460.49 70.8951 1459.84 72.8107 1459.82 74.7371C1459.8 76.0991 1460.11 77.3274 1460.7 78.2896C1460.78 78.4127 1460.74 78.5738 1460.61 78.6493C1460.57 78.6758 1460.52 78.6882 1460.48 78.6882Z" fill="#33363A"></path><path d="M1460.57 75.7945C1460.56 76.8104 1460.92 77.6326 1461.48 78.0835C1462.05 77.3949 1462.42 76.4181 1462.43 75.4025C1462.44 74.3866 1462.09 73.5641 1461.53 73.1135C1460.96 73.8021 1460.58 74.7788 1460.57 75.7945Z" fill="#66310E"></path><path d="M1461.53 73.1135C1460.96 73.8021 1460.58 74.779 1460.57 75.7945C1460.56 76.8104 1460.92 77.6326 1461.48 78.0835L1461.53 73.1135Z" fill="#89410B"></path><path d="M1461.48 78.3451C1461.42 78.3451 1461.36 78.3263 1461.31 78.2872C1460.66 77.7641 1460.3 76.8546 1460.31 75.7919C1460.32 74.7507 1460.69 73.7135 1461.33 72.9465C1461.42 72.8364 1461.58 72.8199 1461.69 72.9097C1462.34 73.4325 1462.71 74.342 1462.7 75.4053C1462.68 76.4465 1462.31 77.4837 1461.68 78.2506C1461.63 78.3128 1461.55 78.3451 1461.48 78.3451ZM1460.57 75.7945L1460.83 75.7971C1460.82 76.5667 1461.05 77.2539 1461.44 77.6943C1461.9 77.0464 1462.16 76.2256 1462.17 75.4001C1462.18 74.6301 1461.95 73.943 1461.56 73.5029C1461.1 74.1509 1460.84 74.9718 1460.83 75.7971L1460.57 75.7945Z" fill="#33363A"></path><path d="M1474.44 74.7343C1474.46 76.883 1473.71 78.6234 1472.52 79.5769C1471.31 78.12 1470.52 76.0533 1470.5 73.9043C1470.48 71.7555 1471.23 70.0151 1472.42 69.0618C1473.63 70.5185 1474.42 72.5854 1474.44 74.7343Z" fill="#D3964C"></path><path d="M1472.42 69.0618C1473.63 70.5183 1474.42 72.5854 1474.44 74.7343C1474.47 76.883 1473.71 78.6234 1472.52 79.5769L1472.42 69.0618Z" fill="#C4833D"></path><path d="M1473.52 78.688C1473.47 78.688 1473.43 78.6757 1473.38 78.6492C1473.26 78.5735 1473.22 78.4125 1473.3 78.2894C1473.89 77.3272 1474.2 76.0988 1474.18 74.7371C1474.16 72.8106 1473.51 70.8951 1472.38 69.4368C1471.33 70.4096 1470.74 72.0189 1470.76 73.9015C1470.77 75.1066 1471.04 76.3343 1471.53 77.4519C1471.59 77.5842 1471.53 77.7386 1471.39 77.7966C1471.26 77.8552 1471.11 77.7945 1471.05 77.6624C1470.53 76.4806 1470.25 75.1819 1470.24 73.9069C1470.21 71.7478 1470.95 69.9074 1472.25 68.8578C1472.37 68.7682 1472.53 68.7846 1472.62 68.8946C1473.92 70.4668 1474.68 72.5943 1474.71 74.7318C1474.72 76.1924 1474.39 77.5175 1473.74 78.5637C1473.7 78.6437 1473.61 78.688 1473.52 78.688Z" fill="#33363A"></path><path d="M1473.43 75.7945C1473.44 76.8104 1473.08 77.6326 1472.52 78.0835C1471.95 77.3949 1471.58 76.4181 1471.57 75.4025C1471.56 74.3866 1471.91 73.5641 1472.47 73.1135C1473.04 73.8021 1473.42 74.7788 1473.43 75.7945Z" fill="#66310E"></path><path d="M1472.47 73.1135C1473.04 73.8021 1473.42 74.779 1473.43 75.7945C1473.44 76.8104 1473.08 77.6326 1472.52 78.0835L1472.47 73.1135Z" fill="#89410B"></path><path d="M1472.52 78.3451C1472.45 78.3451 1472.37 78.3128 1472.32 78.2506C1471.69 77.4837 1471.32 76.4463 1471.3 75.4052C1471.29 74.342 1471.66 73.4325 1472.31 72.9097C1472.42 72.8199 1472.58 72.8364 1472.67 72.9465C1473.31 73.7135 1473.68 74.7509 1473.69 75.7919C1473.7 76.8546 1473.34 77.7641 1472.69 78.2872C1472.64 78.3261 1472.58 78.3451 1472.52 78.3451ZM1472.44 73.5027C1472.05 73.9427 1471.82 74.6299 1471.83 75.3997C1471.84 76.2254 1472.1 77.0462 1472.55 77.6942C1472.95 77.2539 1473.18 76.5665 1473.17 75.797C1473.16 74.9717 1472.9 74.1507 1472.44 73.5027Z" fill="#33363A"></path><path d="M1468.68 85.2898C1468.54 85.2898 1468.42 85.407 1468.42 85.5513C1468.42 85.8003 1468.22 86.003 1467.97 86.003H1467.71C1467.46 86.003 1467.26 85.8003 1467.26 85.5513V85.2976C1467.26 85.2849 1467.26 85.2727 1467.26 85.2605L1467.8 84.989C1467.91 84.9346 1467.97 84.8129 1467.94 84.6948C1467.91 84.5768 1467.8 84.4934 1467.68 84.4934H1466.32C1466.2 84.4934 1466.09 84.5769 1466.06 84.6948C1466.03 84.8127 1466.09 84.9346 1466.2 84.989L1466.74 85.2605C1466.74 85.2727 1466.74 85.2849 1466.74 85.2976V85.5513C1466.74 85.8003 1466.54 86.003 1466.29 86.003H1466.03C1465.78 86.003 1465.58 85.8003 1465.58 85.5513C1465.58 85.407 1465.46 85.2898 1465.32 85.2898C1465.18 85.2898 1465.06 85.407 1465.06 85.5513C1465.06 86.0888 1465.5 86.5261 1466.03 86.5261H1466.29C1466.57 86.5261 1466.82 86.4053 1467 86.2136C1467.18 86.4053 1467.43 86.5261 1467.71 86.5261H1467.97C1468.5 86.5261 1468.94 86.0888 1468.94 85.5513C1468.94 85.407 1468.82 85.2898 1468.68 85.2898Z" fill="#33363A"></path><path d="M1464.18 83.5223C1464.18 84.2981 1463.55 84.9262 1462.78 84.9262C1462 84.9262 1461.37 84.2981 1461.37 83.5223C1461.37 82.7469 1462 82.1184 1462.78 82.1184C1463.55 82.1184 1464.18 82.7469 1464.18 83.5223Z" fill="#89410B"></path><path d="M1462.08 83.638C1462.4 83.638 1462.65 83.382 1462.65 83.0661C1462.65 82.7502 1462.4 82.4941 1462.08 82.4941C1461.76 82.4941 1461.51 82.7502 1461.51 83.0661C1461.51 83.382 1461.76 83.638 1462.08 83.638Z" fill="white"></path><path d="M1462.78 81.8567C1462.21 81.8567 1461.71 82.1406 1461.41 82.5728C1461.39 82.5978 1461.38 82.6241 1461.36 82.651C1461.2 82.9049 1461.11 83.2025 1461.11 83.5221C1461.11 84.4406 1461.86 85.1876 1462.78 85.1876C1463.7 85.1876 1464.44 84.4406 1464.44 83.5221C1464.44 82.6037 1463.7 81.8567 1462.78 81.8567ZM1462.78 84.6645C1462.3 84.6645 1461.9 84.3736 1461.72 83.961C1461.84 83.9579 1461.99 83.926 1462.15 83.8925C1462.21 83.8873 1462.27 83.8756 1462.33 83.8573C1462.47 83.8322 1462.62 83.8123 1462.78 83.8123C1463.2 83.8123 1463.57 83.9541 1463.83 83.961C1463.66 84.3736 1463.25 84.6645 1462.78 84.6645Z" fill="#33363A"></path><path d="M1462.08 83.3766C1462.25 83.3766 1462.39 83.2377 1462.39 83.0662C1462.39 82.8948 1462.25 82.7559 1462.08 82.7559C1461.91 82.7559 1461.77 82.8948 1461.77 83.0662C1461.77 83.2377 1461.91 83.3766 1462.08 83.3766Z" fill="white"></path><path d="M1472.63 83.5223C1472.63 84.2981 1472 84.9262 1471.22 84.9262C1470.45 84.9262 1469.82 84.2981 1469.82 83.5223C1469.82 82.7469 1470.45 82.1184 1471.22 82.1184C1472 82.1184 1472.63 82.7469 1472.63 83.5223Z" fill="#89410B"></path><path d="M1470.52 83.638C1470.84 83.638 1471.1 83.382 1471.1 83.0661C1471.1 82.7502 1470.84 82.4941 1470.52 82.4941C1470.21 82.4941 1469.95 82.7502 1469.95 83.0661C1469.95 83.382 1470.21 83.638 1470.52 83.638Z" fill="white"></path><path d="M1471.22 81.8567C1470.66 81.8567 1470.16 82.1402 1469.86 82.572C1469.84 82.5974 1469.82 82.6241 1469.8 82.6517C1469.65 82.9054 1469.56 83.2029 1469.56 83.5221C1469.56 84.4406 1470.3 85.1876 1471.22 85.1876C1472.14 85.1876 1472.89 84.4406 1472.89 83.5221C1472.89 82.6037 1472.14 81.8567 1471.22 81.8567ZM1471.22 84.6645C1470.75 84.6645 1470.34 84.3736 1470.17 83.961C1470.29 83.9579 1470.43 83.9262 1470.6 83.892C1470.66 83.8868 1470.71 83.8758 1470.77 83.859C1470.91 83.8332 1471.06 83.8123 1471.22 83.8123C1471.64 83.8123 1472.02 83.9541 1472.28 83.961C1472.1 84.3736 1471.7 84.6645 1471.22 84.6645Z" fill="#33363A"></path><path d="M1470.52 83.3766C1470.7 83.3766 1470.83 83.2377 1470.83 83.0662C1470.83 82.8948 1470.7 82.7559 1470.52 82.7559C1470.35 82.7559 1470.21 82.8948 1470.21 83.0662C1470.21 83.2377 1470.35 83.3766 1470.52 83.3766Z" fill="white"></path><path d="M1470.58 76.506L1469.41 73.9029L1468.29 74.4056L1467 73.1135L1465.71 74.4056L1464.59 73.9029L1463.42 76.506L1466.02 77.6755L1466.08 77.5461L1467 78.4649L1467.92 77.5463L1467.98 77.6755L1470.58 76.506Z" fill="#E5B076"></path><path d="M1468.29 76.5855L1467 75.2937L1465.71 76.5855L1464.59 76.0831L1464.24 76.8721L1466.02 77.6757L1466.08 77.5463L1467 78.4651L1467.92 77.5464L1467.98 77.6757L1469.76 76.8721L1469.41 76.0831L1468.29 76.5855Z" fill="#D3964C"></path><path d="M1470.58 76.7674C1470.48 76.7674 1470.38 76.71 1470.34 76.6131L1469.28 74.2485L1468.4 74.644C1468.3 74.6887 1468.18 74.667 1468.11 74.5903L1467 73.483L1465.89 74.5903C1465.82 74.6669 1465.7 74.6885 1465.6 74.644L1464.72 74.2485L1463.66 76.6131C1463.6 76.7447 1463.45 76.804 1463.31 76.7444C1463.18 76.6851 1463.12 76.5302 1463.18 76.3986L1464.35 73.7955C1464.38 73.7324 1464.43 73.6829 1464.5 73.6583C1464.56 73.6334 1464.63 73.6356 1464.7 73.6642L1465.65 74.0928L1466.81 72.9284C1466.86 72.8794 1466.93 72.8518 1467 72.8518C1467.07 72.8518 1467.14 72.8794 1467.18 72.9284L1468.35 74.0928L1469.3 73.6642C1469.37 73.6356 1469.44 73.6334 1469.5 73.6583C1469.57 73.6831 1469.62 73.7324 1469.65 73.7955L1470.82 76.3986C1470.88 76.5304 1470.82 76.6853 1470.69 76.7444C1470.65 76.7601 1470.62 76.7674 1470.58 76.7674Z" fill="#33363A"></path><circle cx="1782" cy="303" r="20" fill="#80EDAC" fill-opacity="0.36"></circle><path d="M1790.04 298.801C1793.05 301.804 1793.05 304.633 1790.04 307.636C1787.04 310.64 1777.1 310.64 1774.1 307.636C1771.09 304.633 1771.09 301.804 1774.1 298.801C1782.04 290.86 1782.1 290.86 1790.04 298.801Z" fill="#43B530"></path><path d="M1774.1 299.884C1772.78 301.2 1772.04 302.482 1771.88 303.76C1772.04 305.038 1772.78 306.32 1774.1 307.636C1777.1 310.64 1787.04 310.64 1790.04 307.636C1791.36 306.321 1792.1 305.038 1792.26 303.76C1792.1 302.482 1791.36 301.2 1790.04 299.884C1782.1 291.944 1782.04 291.944 1774.1 299.884Z" fill="#107510"></path><path d="M1774.1 299.884C1773.28 300.703 1772.68 301.508 1772.31 302.308C1772.68 303.108 1773.28 303.913 1774.1 304.732C1777.1 307.735 1787.04 307.736 1790.04 304.732C1790.86 303.913 1791.46 303.108 1791.83 302.308C1791.46 301.508 1790.86 300.703 1790.04 299.884C1782.1 291.944 1782.04 291.944 1774.1 299.884Z" fill="#1A8E1C"></path><path d="M1782.07 310.134C1782.07 310.134 1782.07 310.134 1782.07 310.134C1778.48 310.134 1775.36 309.243 1773.92 307.809C1772.36 306.245 1771.6 304.744 1771.6 303.218C1771.6 301.693 1772.36 300.191 1773.92 298.627C1777.94 294.614 1779.95 292.6 1782.07 292.6C1784.19 292.6 1786.2 294.614 1790.22 298.627C1791.78 300.191 1792.54 301.693 1792.54 303.218C1792.54 304.744 1791.78 306.246 1790.22 307.809C1788.78 309.243 1785.66 310.134 1782.07 310.134ZM1782.07 293.091C1780.15 293.091 1778.07 295.18 1774.27 298.974C1772.8 300.441 1772.09 301.83 1772.09 303.218C1772.09 304.607 1772.8 305.995 1774.27 307.463C1775.62 308.808 1778.61 309.644 1782.07 309.644C1785.54 309.644 1788.53 308.808 1789.87 307.463C1791.34 305.995 1792.05 304.607 1792.05 303.218C1792.05 301.83 1791.34 300.441 1789.87 298.974C1786.08 295.18 1783.99 293.091 1782.07 293.091Z" fill="#33363A"></path><path d="M1785.8 298.801C1787.21 301.804 1787.21 304.633 1785.8 307.636C1784.4 310.64 1779.74 310.64 1778.34 307.636C1776.93 304.633 1776.93 301.804 1778.34 298.801C1782.06 290.86 1782.09 290.86 1785.8 298.801Z" fill="#43B530"></path><path d="M1778.75 299.884C1778.13 301.2 1777.38 302.482 1777.3 303.76C1777.38 305.038 1777.72 306.32 1778.34 307.636C1779.74 310.64 1784.4 310.64 1785.8 307.636C1786.42 306.321 1786.77 305.038 1786.84 303.76C1786.77 302.482 1786.01 301.2 1785.39 299.884C1781.68 291.944 1782.46 291.944 1778.75 299.884Z" fill="#1A8E1C"></path><path d="M1782.07 310.134C1782.07 310.134 1782.07 310.134 1782.07 310.134C1780.32 310.134 1778.81 309.217 1778.12 307.74C1776.67 304.655 1776.67 301.781 1778.12 298.696C1780.08 294.511 1780.97 292.6 1782.07 292.6C1783.17 292.6 1784.07 294.51 1786.03 298.696C1787.47 301.781 1787.47 304.655 1786.03 307.74C1785.33 309.217 1783.82 310.134 1782.07 310.134ZM1782.07 293.091C1781.28 293.09 1780.26 295.279 1778.56 298.904C1777.18 301.847 1777.18 304.589 1778.56 307.532C1779.17 308.834 1780.52 309.644 1782.07 309.644C1783.63 309.644 1784.97 308.834 1785.58 307.532C1786.96 304.589 1786.96 301.847 1785.58 298.904C1783.88 295.279 1782.86 293.091 1782.07 293.091Z" fill="#33363A"></path><path d="M1790.12 306.983C1790.12 310.365 1786.52 313.107 1782.07 313.107C1777.63 313.107 1774.02 310.364 1774.02 306.983C1774.02 303.601 1777.63 299.548 1782.07 299.548C1786.52 299.548 1790.12 303.601 1790.12 306.983Z" fill="#80EDAC"></path><path d="M1790.12 306.983C1790.12 310.365 1786.52 313.107 1782.07 313.107C1777.63 313.107 1774.02 310.364 1774.02 306.983C1774.02 303.601 1777.63 301.27 1782.07 301.27C1786.52 301.27 1790.12 303.601 1790.12 306.983Z" fill="#6ADB9A"></path><path d="M1783.78 307.486C1783.78 307.714 1783.01 307.754 1782.06 307.754C1781.12 307.754 1780.35 307.714 1780.35 307.486C1780.35 307.258 1781.12 306.662 1782.06 306.662C1783.01 306.662 1783.78 307.258 1783.78 307.486Z" fill="#80EDAC"></path><path d="M1790.12 306.983C1790.12 310.365 1786.52 313.107 1782.07 313.107C1777.63 313.107 1774.02 310.364 1774.02 306.983C1774.02 303.6 1775.05 309.982 1782.07 309.982C1789.1 309.982 1790.12 303.6 1790.12 306.983Z" fill="#47C67B"></path><path d="M1784.29 309.365C1784.29 310.001 1783.3 310.517 1782.07 310.517C1780.84 310.517 1779.85 310.001 1779.85 309.365" fill="#BA503A"></path><path d="M1782.07 313.352C1777.5 313.352 1773.78 310.495 1773.78 306.983C1773.78 303.504 1777.48 299.302 1782.07 299.302C1786.67 299.302 1790.36 303.504 1790.36 306.983C1790.36 310.495 1786.64 313.352 1782.07 313.352ZM1782.07 299.793C1777.75 299.793 1774.27 303.726 1774.27 306.983C1774.27 310.224 1777.77 312.861 1782.07 312.861C1786.37 312.861 1789.87 310.224 1789.87 306.983C1789.87 303.726 1786.39 299.793 1782.07 299.793Z" fill="#33363A"></path><path d="M1779.43 306.354C1779.43 307.082 1778.84 307.671 1778.11 307.671C1777.38 307.671 1776.79 307.082 1776.79 306.354C1776.79 305.627 1777.38 305.037 1778.11 305.037C1778.84 305.037 1779.43 305.627 1779.43 306.354Z" fill="#AD2707"></path><path d="M1777.46 306.463C1777.75 306.463 1777.99 306.223 1777.99 305.926C1777.99 305.63 1777.75 305.39 1777.46 305.39C1777.16 305.39 1776.92 305.63 1776.92 305.926C1776.92 306.223 1777.16 306.463 1777.46 306.463Z" fill="white"></path><path d="M1778.11 304.792C1777.58 304.792 1777.11 305.057 1776.83 305.46C1776.81 305.486 1776.8 305.513 1776.78 305.542C1776.63 305.779 1776.55 306.056 1776.55 306.354C1776.55 307.216 1777.25 307.916 1778.11 307.916C1778.97 307.916 1779.67 307.216 1779.67 306.354C1779.67 305.493 1778.97 304.792 1778.11 304.792ZM1778.11 307.426C1777.67 307.426 1777.28 307.153 1777.12 306.766C1777.23 306.763 1777.37 306.733 1777.53 306.701C1777.58 306.696 1777.63 306.686 1777.68 306.67C1777.82 306.646 1777.96 306.626 1778.11 306.626C1778.51 306.626 1778.86 306.759 1779.1 306.766C1778.94 307.153 1778.56 307.426 1778.11 307.426Z" fill="#33363A"></path><path d="M1777.46 306.218C1777.62 306.218 1777.75 306.087 1777.75 305.927C1777.75 305.766 1777.62 305.635 1777.46 305.635C1777.29 305.635 1777.16 305.766 1777.16 305.927C1777.16 306.087 1777.29 306.218 1777.46 306.218Z" fill="white"></path><path d="M1787.35 306.354C1787.35 307.082 1786.76 307.671 1786.03 307.671C1785.3 307.671 1784.71 307.082 1784.71 306.354C1784.71 305.627 1785.3 305.037 1786.03 305.037C1786.76 305.037 1787.35 305.627 1787.35 306.354Z" fill="#AD2707"></path><path d="M1785.38 306.463C1785.67 306.463 1785.91 306.222 1785.91 305.926C1785.91 305.63 1785.67 305.39 1785.38 305.39C1785.08 305.39 1784.84 305.63 1784.84 305.926C1784.84 306.222 1785.08 306.463 1785.38 306.463Z" fill="white"></path><path d="M1786.03 304.792C1785.5 304.792 1785.03 305.058 1784.75 305.462C1784.73 305.487 1784.72 305.512 1784.7 305.539C1784.56 305.776 1784.47 306.055 1784.47 306.354C1784.47 307.215 1785.17 307.916 1786.03 307.916C1786.89 307.916 1787.59 307.215 1787.59 306.354C1787.59 305.493 1786.89 304.792 1786.03 304.792ZM1786.03 307.426C1785.59 307.426 1785.2 307.153 1785.04 306.766C1785.16 306.763 1785.29 306.733 1785.45 306.701C1785.5 306.696 1785.55 306.686 1785.61 306.67C1785.74 306.646 1785.88 306.626 1786.03 306.626C1786.43 306.626 1786.78 306.759 1787.02 306.766C1786.86 307.153 1786.48 307.426 1786.03 307.426Z" fill="#33363A"></path><path d="M1785.38 305.635C1785.22 305.635 1785.08 305.766 1785.08 305.926C1785.08 306.087 1785.22 306.218 1785.38 306.218C1785.54 306.218 1785.67 306.087 1785.67 305.926C1785.67 305.766 1785.54 305.635 1785.38 305.635Z" fill="white"></path><path d="M1781.67 308.569C1781.6 308.569 1781.54 308.543 1781.49 308.492L1781.24 308.232C1781.15 308.134 1781.16 307.979 1781.25 307.886C1781.35 307.793 1781.51 307.797 1781.6 307.896L1781.85 308.155C1781.94 308.254 1781.93 308.409 1781.84 308.502C1781.79 308.547 1781.73 308.569 1781.67 308.569Z" fill="#33363A"></path><path d="M1782.47 308.569C1782.41 308.569 1782.35 308.547 1782.31 308.502C1782.21 308.409 1782.2 308.254 1782.3 308.155L1782.54 307.895C1782.63 307.797 1782.79 307.793 1782.89 307.885C1782.99 307.978 1782.99 308.134 1782.9 308.232L1782.65 308.492C1782.6 308.543 1782.54 308.569 1782.47 308.569Z" fill="#33363A"></path><path d="M1777.09 301.868C1777.51 301.568 1777.97 301.367 1778.41 301.259C1778.47 300.853 1778.41 300.467 1778.19 300.156C1777.72 299.481 1776.67 299.37 1775.64 299.812C1774.88 300.627 1774.63 301.655 1775.1 302.329C1775.32 302.64 1775.66 302.83 1776.07 302.902C1776.32 302.525 1776.66 302.167 1777.09 301.868Z" fill="#9CFFC4"></path><path d="M1777.61 300.592C1777.18 299.989 1776.29 299.837 1775.38 300.128C1774.83 300.88 1774.69 301.74 1775.1 302.329C1775.29 302.588 1775.55 302.761 1775.87 302.855C1776.06 302.658 1776.31 302.823 1776.54 302.656C1776.61 302.607 1776.64 302.213 1776.71 302.169C1776.83 302.064 1776.95 301.962 1777.09 301.868C1777.33 301.695 1777.59 301.559 1777.84 301.45C1777.85 301.136 1777.78 300.839 1777.61 300.592Z" fill="#80EDAC"></path><path d="M1776.07 303.148C1776.06 303.148 1776.04 303.147 1776.03 303.144C1775.54 303.057 1775.15 302.824 1774.9 302.47C1774.37 301.71 1774.59 300.575 1775.46 299.644C1775.49 299.62 1775.51 299.6 1775.54 299.587C1776.71 299.082 1777.86 299.255 1778.39 300.015C1778.64 300.368 1778.73 300.812 1778.65 301.3C1778.62 301.433 1778.5 301.522 1778.36 301.501C1778.23 301.478 1778.14 301.352 1778.16 301.218C1778.22 300.861 1778.16 300.542 1777.99 300.297C1777.61 299.75 1776.7 299.637 1775.79 300.017C1775.12 300.754 1774.92 301.641 1775.3 302.188C1775.48 302.433 1775.76 302.597 1776.11 302.661C1776.25 302.685 1776.34 302.812 1776.31 302.946C1776.29 303.064 1776.19 303.148 1776.07 303.148Z" fill="#33363A"></path><path d="M1787.05 301.868C1786.63 301.568 1786.18 301.367 1785.74 301.259C1785.67 300.853 1785.73 300.467 1785.95 300.156C1786.42 299.481 1787.48 299.37 1788.5 299.812C1789.26 300.627 1789.51 301.655 1789.04 302.329C1788.82 302.64 1788.48 302.83 1788.07 302.902C1787.82 302.525 1787.48 302.167 1787.05 301.868Z" fill="#9CFFC4"></path><path d="M1786.54 300.592C1786.96 299.989 1787.85 299.837 1788.76 300.128C1789.31 300.88 1789.45 301.74 1789.04 302.329C1788.86 302.588 1788.59 302.761 1788.27 302.855C1788.09 302.658 1787.84 302.823 1787.6 302.656C1787.53 302.607 1787.5 302.213 1787.43 302.169C1787.31 302.064 1787.19 301.962 1787.05 301.868C1786.81 301.695 1786.55 301.559 1786.3 301.45C1786.29 301.136 1786.36 300.839 1786.54 300.592Z" fill="#80EDAC"></path><path d="M1788.07 303.148C1787.95 303.148 1787.85 303.064 1787.83 302.946C1787.81 302.812 1787.9 302.685 1788.03 302.661C1788.38 302.597 1788.66 302.434 1788.84 302.188C1789.22 301.641 1789.02 300.754 1788.36 300.017C1787.44 299.638 1786.54 299.75 1786.15 300.297C1785.98 300.543 1785.92 300.861 1785.98 301.218C1786 301.352 1785.91 301.478 1785.78 301.501C1785.64 301.522 1785.52 301.433 1785.49 301.3C1785.41 300.812 1785.5 300.368 1785.75 300.015C1786.28 299.255 1787.43 299.083 1788.6 299.587C1788.63 299.6 1788.66 299.62 1788.68 299.644C1789.55 300.575 1789.77 301.71 1789.24 302.47C1788.99 302.824 1788.6 303.057 1788.11 303.144C1788.1 303.146 1788.09 303.148 1788.07 303.148Z" fill="#33363A"></path><path d="M1781.01 303.795C1780.33 303.795 1779.77 303.24 1779.77 302.555C1779.77 301.87 1780.64 301.623 1781.32 301.623C1782.01 301.623 1782.25 301.871 1782.25 302.555C1782.25 303.24 1781.7 303.795 1781.01 303.795Z" fill="#47C67B"></path><path d="M1783.47 303.795C1783.71 303.795 1783.9 303.6 1783.9 303.359C1783.9 303.118 1783.71 302.923 1783.47 302.923C1783.22 302.923 1783.03 303.118 1783.03 303.359C1783.03 303.6 1783.22 303.795 1783.47 303.795Z" fill="#47C67B"></path><path d="M1785.16 303.359C1785.34 303.359 1785.49 303.213 1785.49 303.034C1785.49 302.855 1785.34 302.709 1785.16 302.709C1784.99 302.709 1784.84 302.855 1784.84 303.034C1784.84 303.213 1784.99 303.359 1785.16 303.359Z" fill="#47C67B"></path><path d="M1782.93 305.904C1783.05 305.904 1783.15 305.809 1783.15 305.69C1783.15 305.572 1783.05 305.477 1782.93 305.477C1782.82 305.477 1782.72 305.572 1782.72 305.69C1782.72 305.809 1782.82 305.904 1782.93 305.904Z" fill="#47C67B"></path><path d="M1779.19 303.852C1779.41 303.852 1779.59 303.669 1779.59 303.443C1779.59 303.217 1779.41 303.034 1779.19 303.034C1778.96 303.034 1778.78 303.217 1778.78 303.443C1778.78 303.669 1778.96 303.852 1779.19 303.852Z" fill="#47C67B"></path><path d="M1778.43 309.108L1777.61 309.594L1777.55 308.637" fill="white"></path><path d="M1785.71 309.108L1786.53 309.594L1786.59 308.637" fill="white"></path><path d="M1787.12 307.694C1787 307.635 1786.86 307.685 1786.8 307.807C1786.79 307.818 1786.21 308.952 1784.27 308.916C1782.96 308.893 1782.35 309.162 1782.07 309.422C1781.79 309.163 1781.19 308.894 1779.87 308.916C1777.95 308.952 1777.37 307.855 1777.35 307.805C1777.29 307.685 1777.14 307.635 1777.02 307.694C1776.9 307.754 1776.85 307.901 1776.91 308.022C1776.92 308.046 1777.04 308.279 1777.32 308.547C1777.31 308.579 1777.3 308.615 1777.3 308.652L1777.36 309.609C1777.37 309.694 1777.42 309.77 1777.49 309.81C1777.53 309.83 1777.57 309.839 1777.61 309.839C1777.65 309.839 1777.69 309.828 1777.73 309.805L1778.56 309.319C1778.59 309.302 1778.61 309.281 1778.63 309.257C1778.91 309.335 1779.24 309.387 1779.61 309.4C1779.64 310.167 1780.71 310.762 1782.07 310.762C1783.43 310.762 1784.5 310.167 1784.53 309.4C1784.91 309.386 1785.23 309.334 1785.51 309.256C1785.53 309.281 1785.56 309.302 1785.58 309.319L1786.41 309.805C1786.45 309.828 1786.49 309.839 1786.53 309.839C1786.57 309.839 1786.61 309.83 1786.65 309.81C1786.72 309.77 1786.77 309.694 1786.78 309.609L1786.84 308.652C1786.84 308.615 1786.83 308.579 1786.82 308.547C1787.1 308.279 1787.22 308.046 1787.24 308.022C1787.3 307.901 1787.25 307.754 1787.12 307.694ZM1777.83 309.179L1777.81 308.916C1777.89 308.961 1777.97 309.004 1778.06 309.046L1777.83 309.179ZM1782.07 310.272C1780.94 310.272 1780.15 309.824 1780.1 309.406C1781.41 309.421 1781.79 309.768 1781.82 309.907C1781.82 309.897 1781.82 309.891 1781.82 309.891L1782.07 309.868L1782.32 309.891C1782.32 309.891 1782.32 309.897 1782.32 309.907C1782.36 309.768 1782.74 309.418 1784.04 309.406C1783.99 309.824 1783.2 310.272 1782.07 310.272ZM1786.31 309.179L1786.09 309.045C1786.17 309.003 1786.25 308.96 1786.33 308.915L1786.31 309.179Z" fill="#33363A"></path></svg>